<svg width="445" height="151" viewBox="0 0 445 151" fill="none" xmlns="http://www.w3.org/2000/svg">
<path fill-rule="evenodd" clip-rule="evenodd" d="M330 15C330 6.71573 323.284 0 315 0H129C120.716 0 114 6.71573 114 15V40C114 48.2843 107.284 55 99 55H15C6.71573 55 0 61.7157 0 70V136C0 144.284 6.71573 151 15 151H430C438.284 151 445 144.284 445 136V70C445 61.7157 438.284 55 430 55H345C336.716 55 330 48.2843 330 40V15Z" fill="white"/>
<mask id="path-2-inside-1_7_315" fill="white">
<path fill-rule="evenodd" clip-rule="evenodd" d="M327 18C327 9.71573 320.284 3 312 3H132C123.716 3 117 9.71573 117 18V43C117 51.2843 110.284 58 102 58H20C11.7157 58 5 64.7157 5 73V133C5 141.284 11.7157 148 20 148H425C433.284 148 440 141.284 440 133V73C440 64.7157 433.284 58 425 58H342C333.716 58 327 51.2843 327 43V18Z"/>
</mask>
<path d="M342 57.75C341.015 57.75 340.052 57.6534 339.121 57.4692L339.024 57.9597C339.987 58.1502 340.982 58.25 342 58.25V57.75ZM333.805 55.2657C332.196 54.1888 330.811 52.8038 329.734 51.1952L329.319 51.4733C330.432 53.1362 331.864 54.5679 333.527 55.6812L333.805 55.2657ZM327.531 45.8789C327.347 44.948 327.25 43.9854 327.25 43H326.75C326.75 44.0182 326.85 45.0133 327.04 45.976L327.531 45.8789ZM327.25 43V39.875H326.75V43H327.25ZM327.25 33.625V27.375H326.75V33.625H327.25ZM327.25 21.125V18H326.75V21.125H327.25ZM327.25 18C327.25 16.9818 327.15 15.9868 326.96 15.0241L326.469 15.1211C326.653 16.052 326.75 17.0146 326.75 18H327.25ZM324.681 9.52669C323.568 7.86376 322.136 6.43208 320.473 5.31878L320.195 5.73426C321.804 6.8112 323.189 8.19623 324.266 9.80485L324.681 9.52669ZM314.976 3.04026C314.013 2.84981 313.018 2.75 312 2.75V3.25C312.985 3.25 313.948 3.3466 314.879 3.53076L314.976 3.04026ZM312 2.75H309V3.25H312V2.75ZM303 2.75H297V3.25H303V2.75ZM291 2.75H285V3.25H291V2.75ZM279 2.75H273V3.25H279V2.75ZM267 2.75H261V3.25H267V2.75ZM255 2.75H249V3.25H255V2.75ZM243 2.75H237V3.25H243V2.75ZM231 2.75H225V3.25H231V2.75ZM219 2.75H213V3.25H219V2.75ZM207 2.75H201V3.25H207V2.75ZM195 2.75H189V3.25H195V2.75ZM183 2.75H177V3.25H183V2.75ZM171 2.75H165V3.25H171V2.75ZM159 2.75H153V3.25H159V2.75ZM147 2.75H141V3.25H147V2.75ZM135 2.75H132V3.25H135V2.75ZM132 2.75C130.982 2.75 129.987 2.84981 129.024 3.04026L129.121 3.53076C130.052 3.3466 131.015 3.25 132 3.25V2.75ZM123.527 5.31878C121.864 6.43208 120.432 7.86376 119.319 9.52668L119.734 9.80484C120.811 8.19623 122.196 6.8112 123.805 5.73426L123.527 5.31878ZM117.04 15.024C116.85 15.9867 116.75 16.9818 116.75 18H117.25C117.25 17.0146 117.347 16.052 117.531 15.1211L117.04 15.024ZM116.75 18V21.125H117.25V18H116.75ZM116.75 27.375V33.625H117.25V27.375H116.75ZM116.75 39.875V43H117.25V39.875H116.75ZM116.75 43C116.75 43.9854 116.653 44.948 116.469 45.8789L116.96 45.9759C117.15 45.0132 117.25 44.0182 117.25 43H116.75ZM114.266 51.1952C113.189 52.8038 111.804 54.1888 110.195 55.2657L110.473 55.6812C112.136 54.5679 113.568 53.1362 114.681 51.4733L114.266 51.1952ZM104.879 57.4692C103.948 57.6534 102.985 57.75 102 57.75V58.25C103.018 58.25 104.013 58.1502 104.976 57.9597L104.879 57.4692ZM102 57.75H99.0714V58.25H102V57.75ZM93.2143 57.75H87.3571V58.25H93.2143V57.75ZM81.5 57.75H75.6429V58.25H81.5V57.75ZM69.7857 57.75H63.9286V58.25H69.7857V57.75ZM58.0714 57.75H52.2143V58.25H58.0714V57.75ZM46.3571 57.75H40.5V58.25H46.3571V57.75ZM34.6429 57.75H28.7857V58.25H34.6429V57.75ZM22.9286 57.75H20V58.25H22.9286V57.75ZM20 57.75C18.9818 57.75 17.9868 57.8498 17.0241 58.0403L17.1211 58.5308C18.052 58.3466 19.0146 58.25 20 58.25V57.75ZM11.5267 60.3188C9.86376 61.4321 8.43208 62.8638 7.31878 64.5267L7.73426 64.8048C8.8112 63.1962 10.1962 61.8112 11.8048 60.7343L11.5267 60.3188ZM5.04026 70.0241C4.84981 70.9868 4.75 71.9818 4.75 73H5.25C5.25 72.0146 5.3466 71.052 5.53076 70.1211L5.04026 70.0241ZM4.75 73V76H5.25V73H4.75ZM4.75 82V88H5.25V82H4.75ZM4.75 94V100H5.25V94H4.75ZM4.75 106V112H5.25V106H4.75ZM4.75 118V124H5.25V118H4.75ZM4.75 130V133H5.25V130H4.75ZM4.75 133C4.75 134.018 4.84981 135.013 5.04026 135.976L5.53076 135.879C5.3466 134.948 5.25 133.985 5.25 133H4.75ZM7.31878 141.473C8.43208 143.136 9.86376 144.568 11.5267 145.681L11.8048 145.266C10.1962 144.189 8.81121 142.804 7.73426 141.195L7.31878 141.473ZM17.0241 147.96C17.9868 148.15 18.9819 148.25 20 148.25V147.75C19.0146 147.75 18.052 147.653 17.1211 147.469L17.0241 147.96ZM20 148.25H22.9779V147.75H20V148.25ZM28.9338 148.25H34.8897V147.75H28.9338V148.25ZM40.8456 148.25H46.8015V147.75H40.8456V148.25ZM52.7574 148.25H58.7132V147.75H52.7574V148.25ZM64.6691 148.25H70.625V147.75H64.6691V148.25ZM76.5809 148.25H82.5368V147.75H76.5809V148.25ZM88.4927 148.25H94.4485V147.75H88.4927V148.25ZM100.404 148.25H106.36V147.75H100.404V148.25ZM112.316 148.25H118.272V147.75H112.316V148.25ZM124.228 148.25H130.184V147.75H124.228V148.25ZM136.14 148.25H142.096V147.75H136.14V148.25ZM148.051 148.25H154.007V147.75H148.051V148.25ZM159.963 148.25H165.919V147.75H159.963V148.25ZM171.875 148.25H177.831V147.75H171.875V148.25ZM183.787 148.25H189.743V147.75H183.787V148.25ZM195.699 148.25H201.654V147.75H195.699V148.25ZM207.61 148.25H213.566V147.75H207.61V148.25ZM219.522 148.25H225.478V147.75H219.522V148.25ZM231.434 148.25H237.39V147.75H231.434V148.25ZM243.346 148.25H249.302V147.75H243.346V148.25ZM255.257 148.25H261.213V147.75H255.257V148.25ZM267.169 148.25H273.125V147.75H267.169V148.25ZM279.081 148.25H285.037V147.75H279.081V148.25ZM290.993 148.25H296.949V147.75H290.993V148.25ZM302.904 148.25H308.86V147.75H302.904V148.25ZM314.816 148.25H320.772V147.75H314.816V148.25ZM326.728 148.25H332.684V147.75H326.728V148.25ZM338.64 148.25H344.596V147.75H338.64V148.25ZM350.551 148.25H356.507V147.75H350.551V148.25ZM362.463 148.25H368.419V147.75H362.463V148.25ZM374.375 148.25H380.331V147.75H374.375V148.25ZM386.287 148.25H392.243V147.75H386.287V148.25ZM398.198 148.25H404.154V147.75H398.198V148.25ZM410.11 148.25H416.066V147.75H410.11V148.25ZM422.022 148.25H425V147.75H422.022V148.25ZM425 148.25C426.018 148.25 427.013 148.15 427.976 147.96L427.879 147.469C426.948 147.653 425.985 147.75 425 147.75V148.25ZM433.473 145.681C435.136 144.568 436.568 143.136 437.681 141.473L437.266 141.195C436.189 142.804 434.804 144.189 433.195 145.266L433.473 145.681ZM439.96 135.976C440.15 135.013 440.25 134.018 440.25 133H439.75C439.75 133.985 439.653 134.948 439.469 135.879L439.96 135.976ZM440.25 133V130H439.75V133H440.25ZM440.25 124V118H439.75V124H440.25ZM440.25 112V106H439.75V112H440.25ZM440.25 100V94H439.75V100H440.25ZM440.25 88V82H439.75V88H440.25ZM440.25 76V73H439.75V76H440.25ZM440.25 73C440.25 71.9818 440.15 70.9868 439.96 70.0241L439.469 70.1211C439.653 71.052 439.75 72.0146 439.75 73H440.25ZM437.681 64.5267C436.568 62.8638 435.136 61.4321 433.473 60.3188L433.195 60.7343C434.804 61.8112 436.189 63.1962 437.266 64.8048L437.681 64.5267ZM427.976 58.0403C427.013 57.8498 426.018 57.75 425 57.75V58.25C425.985 58.25 426.948 58.3466 427.879 58.5308L427.976 58.0403ZM425 57.75H422.036V58.25H425V57.75ZM416.107 57.75H410.179V58.25H416.107V57.75ZM404.25 57.75H398.321V58.25H404.25V57.75ZM392.393 57.75H386.464V58.25H392.393V57.75ZM380.536 57.75H374.607V58.25H380.536V57.75ZM368.679 57.75H362.75V58.25H368.679V57.75ZM356.821 57.75H350.893V58.25H356.821V57.75ZM344.964 57.75H342V58.25H344.964V57.75ZM342 57.5C341.031 57.5 340.085 57.405 339.17 57.224L338.976 58.205C339.954 58.3986 340.965 58.5 342 58.5V57.5ZM333.944 55.058C332.362 53.9992 331.001 52.6375 329.942 51.0561L329.111 51.6124C330.243 53.3025 331.698 54.7575 333.388 55.889L333.944 55.058ZM327.776 45.8304C327.595 44.9154 327.5 43.969 327.5 43H326.5C326.5 44.0345 326.601 45.0459 326.795 46.0245L327.776 45.8304ZM327.5 43V39.875H326.5V43H327.5ZM327.5 33.625V27.375H326.5V33.625H327.5ZM327.5 21.125V18H326.5V21.125H327.5ZM327.5 18C327.5 16.9655 327.399 15.9541 327.205 14.9755L326.224 15.1696C326.405 16.0846 326.5 17.031 326.5 18H327.5ZM324.889 9.38761C323.757 7.69752 322.302 6.24252 320.612 5.11103L320.056 5.942C321.638 7.00077 322.999 8.36246 324.058 9.94393L324.889 9.38761ZM315.024 2.79502C314.046 2.60142 313.035 2.5 312 2.5V3.5C312.969 3.5 313.915 3.59499 314.83 3.77601L315.024 2.79502ZM312 2.5H309V3.5H312V2.5ZM303 2.5H297V3.5H303V2.5ZM291 2.5H285V3.5H291V2.5ZM279 2.5H273V3.5H279V2.5ZM267 2.5H261V3.5H267V2.5ZM255 2.5H249V3.5H255V2.5ZM243 2.5H237V3.5H243V2.5ZM231 2.5H225V3.5H231V2.5ZM219 2.5H213V3.5H219V2.5ZM207 2.5H201V3.5H207V2.5ZM195 2.5H189V3.5H195V2.5ZM183 2.5H177V3.5H183V2.5ZM171 2.5H165V3.5H171V2.5ZM159 2.5H153V3.5H159V2.5ZM147 2.5H141V3.5H147V2.5ZM135 2.5H132V3.5H135V2.5ZM132 2.5C130.965 2.5 129.954 2.60142 128.976 2.79502L129.17 3.776C130.085 3.59499 131.031 3.5 132 3.5V2.5ZM123.388 5.11103C121.698 6.24252 120.243 7.69752 119.111 9.3876L119.942 9.94392C121.001 8.36246 122.362 7.00076 123.944 5.942L123.388 5.11103ZM116.795 14.9755C116.601 15.9541 116.5 16.9655 116.5 18H117.5C117.5 17.031 117.595 16.0846 117.776 15.1696L116.795 14.9755ZM116.5 18V21.125H117.5V18H116.5ZM116.5 27.375V33.625H117.5V27.375H116.5ZM116.5 39.875V43H117.5V39.875H116.5ZM116.5 43C116.5 43.969 116.405 44.9154 116.224 45.8304L117.205 46.0245C117.399 45.0459 117.5 44.0345 117.5 43H116.5ZM114.058 51.0561C112.999 52.6375 111.638 53.9992 110.056 55.058L110.612 55.889C112.302 54.7575 113.757 53.3025 114.889 51.6124L114.058 51.0561ZM104.83 57.224C103.915 57.405 102.969 57.5 102 57.5V58.5C103.035 58.5 104.046 58.3986 105.024 58.205L104.83 57.224ZM102 57.5H99.0714V58.5H102V57.5ZM93.2143 57.5H87.3571V58.5H93.2143V57.5ZM81.5 57.5H75.6429V58.5H81.5V57.5ZM69.7857 57.5H63.9286V58.5H69.7857V57.5ZM58.0714 57.5H52.2143V58.5H58.0714V57.5ZM46.3571 57.5H40.5V58.5H46.3571V57.5ZM34.6429 57.5H28.7857V58.5H34.6429V57.5ZM22.9286 57.5H20V58.5H22.9286V57.5ZM20 57.5C18.9655 57.5 17.9541 57.6014 16.9755 57.795L17.1696 58.776C18.0846 58.595 19.031 58.5 20 58.5V57.5ZM11.3876 60.111C9.69752 61.2425 8.24252 62.6975 7.11103 64.3876L7.942 64.9439C9.00076 63.3625 10.3625 62.0008 11.9439 60.942L11.3876 60.111ZM4.79502 69.9755C4.60142 70.9541 4.5 71.9655 4.5 73H5.5C5.5 72.031 5.59499 71.0846 5.77601 70.1696L4.79502 69.9755ZM4.5 73V76H5.5V73H4.5ZM4.5 82V88H5.5V82H4.5ZM4.5 94V100H5.5V94H4.5ZM4.5 106V112H5.5V106H4.5ZM4.5 118V124H5.5V118H4.5ZM4.5 130V133H5.5V130H4.5ZM4.5 133C4.5 134.035 4.60142 135.046 4.79502 136.024L5.77601 135.83C5.59499 134.915 5.5 133.969 5.5 133H4.5ZM7.11104 141.612C8.24252 143.302 9.69753 144.757 11.3876 145.889L11.9439 145.058C10.3625 143.999 9.00077 142.638 7.94201 141.056L7.11104 141.612ZM16.9755 148.205C17.9541 148.399 18.9655 148.5 20 148.5V147.5C19.031 147.5 18.0846 147.405 17.1696 147.224L16.9755 148.205ZM20 148.5H22.9779V147.5H20V148.5ZM28.9338 148.5H34.8897V147.5H28.9338V148.5ZM40.8456 148.5H46.8015V147.5H40.8456V148.5ZM52.7574 148.5H58.7132V147.5H52.7574V148.5ZM64.6691 148.5H70.625V147.5H64.6691V148.5ZM76.5809 148.5H82.5368V147.5H76.5809V148.5ZM88.4927 148.5H94.4485V147.5H88.4927V148.5ZM100.404 148.5H106.36V147.5H100.404V148.5ZM112.316 148.5H118.272V147.5H112.316V148.5ZM124.228 148.5H130.184V147.5H124.228V148.5ZM136.14 148.5H142.096V147.5H136.14V148.5ZM148.051 148.5H154.007V147.5H148.051V148.5ZM159.963 148.5H165.919V147.5H159.963V148.5ZM171.875 148.5H177.831V147.5H171.875V148.5ZM183.787 148.5H189.743V147.5H183.787V148.5ZM195.699 148.5H201.654V147.5H195.699V148.5ZM207.61 148.5H213.566V147.5H207.61V148.5ZM219.522 148.5H225.478V147.5H219.522V148.5ZM231.434 148.5H237.39V147.5H231.434V148.5ZM243.346 148.5H249.302V147.5H243.346V148.5ZM255.257 148.5H261.213V147.5H255.257V148.5ZM267.169 148.5H273.125V147.5H267.169V148.5ZM279.081 148.5H285.037V147.5H279.081V148.5ZM290.993 148.5H296.949V147.5H290.993V148.5ZM302.904 148.5H308.86V147.5H302.904V148.5ZM314.816 148.5H320.772V147.5H314.816V148.5ZM326.728 148.5H332.684V147.5H326.728V148.5ZM338.64 148.5H344.596V147.5H338.64V148.5ZM350.551 148.5H356.507V147.5H350.551V148.5ZM362.463 148.5H368.419V147.5H362.463V148.5ZM374.375 148.5H380.331V147.5H374.375V148.5ZM386.287 148.5H392.243V147.5H386.287V148.5ZM398.198 148.5H404.154V147.5H398.198V148.5ZM410.11 148.5H416.066V147.5H410.11V148.5ZM422.022 148.5H425V147.5H422.022V148.5ZM425 148.5C426.035 148.5 427.046 148.399 428.024 148.205L427.83 147.224C426.915 147.405 425.969 147.5 425 147.5V148.5ZM433.612 145.889C435.302 144.757 436.757 143.302 437.889 141.612L437.058 141.056C435.999 142.638 434.638 143.999 433.056 145.058L433.612 145.889ZM440.205 136.024C440.399 135.046 440.5 134.035 440.5 133H439.5C439.5 133.969 439.405 134.915 439.224 135.83L440.205 136.024ZM440.5 133V130H439.5V133H440.5ZM440.5 124V118H439.5V124H440.5ZM440.5 112V106H439.5V112H440.5ZM440.5 100V94H439.5V100H440.5ZM440.5 88V82H439.5V88H440.5ZM440.5 76V73H439.5V76H440.5ZM440.5 73C440.5 71.9655 440.399 70.9541 440.205 69.9755L439.224 70.1696C439.405 71.0846 439.5 72.031 439.5 73H440.5ZM437.889 64.3876C436.757 62.6975 435.302 61.2425 433.612 60.111L433.056 60.942C434.638 62.0008 435.999 63.3625 437.058 64.9439L437.889 64.3876ZM428.024 57.795C427.046 57.6014 426.035 57.5 425 57.5V58.5C425.969 58.5 426.915 58.595 427.83 58.776L428.024 57.795ZM425 57.5H422.036V58.5H425V57.5ZM416.107 57.5H410.179V58.5H416.107V57.5ZM404.25 57.5H398.321V58.5H404.25V57.5ZM392.393 57.5H386.464V58.5H392.393V57.5ZM380.536 57.5H374.607V58.5H380.536V57.5ZM368.679 57.5H362.75V58.5H368.679V57.5ZM356.821 57.5H350.893V58.5H356.821V57.5ZM344.964 57.5H342V58.5H344.964V57.5Z" fill="black" mask="url(#path-2-inside-1_7_315)"/>
<circle cx="131" cy="18" r="9" fill="black"/>
<circle cx="312" cy="18" r="9" fill="black"/>
<circle cx="131" cy="18" r="6.5" stroke="white"/>
<circle cx="312" cy="18" r="6.5" stroke="white"/>
</svg>
